<?xml version="1.0" encoding="UTF-8" standalone="no"?>
<!-- Generator: Adobe Illustrator 21.1.0, SVG Export Plug-In . SVG Version: 6.00 Build 0)  -->

<svg
   version="1.1"
   id="Calque_1"
   x="0px"
   y="0px"
   viewBox="0 0 155.1 79.4"
   style="enable-background:new 0 0 155.1 79.4;"
   width="450"
   height="230.367505"
   xml:space="preserve"
   sodipodi:docname="xeus-logo.svg"
   inkscape:version="1.1 (ce6663b3b7, 2021-05-25)"
   inkscape:export-filename="/home/derthorsten/Documents/blogpost/xeus_wasm/xeus-wren.png"
   inkscape:export-xdpi="696.216"
   inkscape:export-ydpi="696.216"
   xmlns:inkscape="http://www.inkscape.org/namespaces/inkscape"
   xmlns:sodipodi="http://sodipodi.sourceforge.net/DTD/sodipodi-0.dtd"
   xmlns="http://www.w3.org/2000/svg"
   xmlns:svg="http://www.w3.org/2000/svg"><sodipodi:namedview
   id="namedview12"
   pagecolor="#ffffff"
   bordercolor="#666666"
   borderopacity="1.0"
   inkscape:pageshadow="2"
   inkscape:pageopacity="0.0"
   inkscape:pagecheckerboard="0"
   showgrid="false"
   inkscape:zoom="1.4866667"
   inkscape:cx="319.17039"
   inkscape:cy="175.89685"
   inkscape:window-width="1920"
   inkscape:window-height="1136"
   inkscape:window-x="0"
   inkscape:window-y="27"
   inkscape:window-maximized="1"
   inkscape:current-layer="Calque_1" /><defs
   id="defs21">
		
		
		
		
		
	
	
	
	
	
	

	
	
	
	
	

	
	
</defs>
<style
   type="text/css"
   id="style2">
	.st0{fill:#666666;}
	.st1{fill:#40B3C3;}
	.st2{opacity:0.28;fill:#40B3C3;}
</style>
<path
   id="path4143_4_"
   class="st1"
   d="m 5.5,0 c 0.1,0 0.3,0.1 0.4,0.1 2.7,0.9 5,2.2 5,2.3 2.1,1.5 4,3.4 5.3,5.6 0.5,0.7 5.7,8.6 9.5,14.2 -0.9,1.3 -1.7,2.5 -2.3,3.5 0,-0.1 -0.1,-0.1 -0.1,-0.2 C 19.4,19.7 12.6,9.5 12.1,8.7 11.2,7.3 9.9,6 8.3,5 8.3,5 6.6,3.9 4.4,3.2 3.5,2.9 2,2.6 0,2.4 V 49.2 C 2,49 3.5,48.7 4.4,48.4 6.6,47.7 8.3,46.6 8.3,46.6 10,45.5 11.2,44.2 12.2,42.8 12.7,42.1 19.5,31.8 23.4,26 26.6,21.1 34.7,8.9 35.3,8.1 36.7,5.9 38.5,4 40.6,2.5 c 0,-0.1 2.3,-1.4 5,-2.3 L 46.1,0 Z m 46,2.4 C 49.5,2.6 48,2.9 47.1,3.2 44.9,3.9 43.2,5 43.2,5 41.6,6 40.3,7.3 39.3,8.8 38.8,9.5 32,19.8 28.1,25.6 25,30.4 16.9,42.6 16.3,43.4 14.9,45.6 13.1,47.5 11,49 11,49.1 8.7,50.4 6,51.3 L 5.4,51.4 H 46 l -0.4,-0.1 c -2.7,-0.9 -5,-2.2 -5,-2.3 -2.1,-1.5 -4,-3.4 -5.3,-5.6 -0.5,-0.7 -5.7,-8.6 -9.5,-14.2 0.9,-1.3 1.7,-2.5 2.3,-3.5 0,0.1 0.1,0.1 0.1,0.2 3.9,5.8 10.7,16 11.2,16.8 1,1.4 2.2,2.7 3.9,3.8 0,0 1.7,1.1 3.9,1.8 0.9,0.3 2.4,0.5 4.4,0.8 v 2.3 h 0.1 v -49 z" /><path
   id="path7-3_3_"
   class="st2"
   d="m 28,25.7 c -0.6,0.9 -1.4,2.1 -2.3,3.5 3.8,5.7 9,13.6 9.5,14.2 1.4,2.2 3.2,4.1 5.3,5.6 0,0.1 2.3,1.4 5,2.3 0.2,0 0.4,0.1 0.6,0.1 h 5.3 V 49 C 49.4,48.8 47.9,48.5 47,48.2 44.8,47.5 43.1,46.4 43.1,46.4 41.5,45.4 40.2,44.1 39.2,42.6 38.8,42 32,31.8 28.1,26 v 0 c 0,-0.1 0,-0.2 -0.1,-0.3 M 5.3,0 H 0 V 2.4 C 2,2.6 3.5,2.9 4.4,3.2 6.6,3.9 8.3,5 8.3,5 c 1.6,1 2.9,2.3 3.9,3.8 0.5,0.7 7.3,11 11.2,16.8 v 0 c 0,0.1 0.1,0.1 0.1,0.2 0.6,-0.9 1.4,-2.1 2.3,-3.5 C 22,16.6 16.8,8.7 16.3,8 14.9,5.8 13.1,3.9 11,2.4 11,2.3 8.7,1 6,0.1 5.8,0.1 5.6,0 5.3,0" /><path
   class="st1"
   d="m 144.2,10.3 c -5.3,0 -10.1,2.4 -10.1,8.5 0,6.1 4.3,8 9.6,9.4 4.9,1.4 9,2.4 9,6.9 0,5.4 -3.9,7.1 -8.2,7.1 -3.9,0 -7.6,-1 -10.4,-2.8 l -1.1,2.1 c 3.3,2.2 7.3,3 11.6,3 5.7,0 10.6,-2.5 10.6,-9.4 0,-6.2 -4.8,-7.6 -10.4,-9.2 -5.1,-1.4 -8.1,-2.7 -8.1,-7 0,-4.9 3.4,-6.3 7.7,-6.3 2.8,0 5.6,0.4 7.9,1.7 l 1,-2.2 c -3,-1.4 -6.1,-1.8 -9.1,-1.8 z"
   id="path8" /><path
   class="st1"
   d="m 119.7,10.2 v 18.2 c 0,8.1 -1.2,13.8 -8.8,13.8 h -0.7 c -7.7,0 -8.8,-5.7 -8.8,-13.8 V 10.3 c -0.9,0.5 -1.9,1 -2.6,1.7 v 17.2 c 0,7.2 1.3,15.3 11,15.3 h 1.5 c 9.6,0 11,-8.1 11.1,-15.4 V 11.9 c -0.9,-0.7 -1.8,-1.2 -2.7,-1.7 z"
   id="path10" /><path
   class="st1"
   d="m 76.5,10.3 c -6,0 -13.1,2.2 -13.1,17.2 0,13.9 6.1,17.1 13.6,17.1 4,0 7.6,-0.7 10.6,-2.6 l -1,-2.2 c -3.1,1.8 -6,2.4 -9.6,2.4 -5.9,0 -10.6,-2.1 -11,-12.7 v -1.3 h 22.9 v 0 -0.9 C 89,14.5 84.3,10.3 76.5,10.3 Z M 65.9,25.9 c 0.2,-11.2 5.2,-13.3 10.5,-13.3 5.9,0 9.9,3.1 9.9,13.3 z"
   id="path12" />
<g
   style="clip-rule:evenodd;fill-rule:evenodd;stroke-linejoin:round;stroke-miterlimit:1.41421"
   id="g842"
   transform="matrix(0.14673268,0,0,0.14673268,105.83081,47.315073)"><path
     d="m 64.577,109.352 h -0.155 l -7.861,-26.23 h 3.58 c 0.623,0 0.934,-0.311 0.934,-0.934 v -3.347 c 0,-0.622 -0.311,-0.933 -0.934,-0.934 H 47.503 C 46.554,72.8 46.116,67.995 46.065,63.694 45.83,43.847 36.431,27.511 33.688,23.309 30.946,19.106 0,12.835 0,12.835 4.634,7.809 32.235,12.69 32.235,12.69 c 0,0 8.83,-6.041 23.522,-10.862 14.692,-4.821 33.885,0.994 43.928,4.804 11.724,4.446 32.154,20.541 36.535,25.466 4.381,4.925 8.808,7.968 13.087,9.324 16.02,5.077 43.07,16.549 46.933,18.783 3.864,2.234 16.956,8.625 33.469,5.243 23.235,-4.758 74.185,-42.41 74.185,-42.41 0,0 -20.959,16.276 -15.886,15.175 5.073,-1.1 22.35,-10.006 22.35,-10.006 0,0 -9.292,7.542 -12.94,10.381 -0.593,0.349 -1.045,0.655 -1.296,0.897 -0.446,0.428 0.144,10e-4 1.296,-0.897 3.783,-2.222 13.318,-6.166 13.318,-6.166 L 281.727,51.777 297.999,47.5 c 0.382,-0.119 0.738,-0.213 1.067,-0.281 l -1.067,0.281 c -11.749,3.651 -47.408,30.571 -47.408,30.571 0,0 13.945,2.133 10.142,1.589 -3.803,-0.543 -15.568,13.148 -15.568,13.148 0,0 6.111,0.703 10.135,1.066 -6.757,1.966 -17.907,15.381 -17.907,15.381 l -3.776,10.838 c 13.364,10.006 13.367,20.798 13.367,20.798 -12.948,-8.828 -28.776,-8.665 -28.776,-8.665 -20.723,19.657 -42.522,25.807 -59.567,26.999 l 5.071,32.151 c 0,0 1.4,5.667 4.071,8.087 1.116,1.011 7.061,2.598 7.061,2.598 l 0.685,1.952 -9.179,-1.172 -4.232,-1.633 -4.428,0.856 -4.424,3.224 -4.092,-0.86 3.114,-2.596 -7.554,0.042 0.626,-1.362 5.26,-2.203 7.275,-3.762 1.894,-5.249 -8.006,-29.841 c -12.261,-0.023 -21.082,-2.37 -23.632,-2.893 -1.049,-0.216 -2.293,-0.411 -3.756,-0.677 l -8.284,29.589 c 0,0 3.864,7.503 9.462,10.394 2.34,1.208 12.477,5.42 12.477,5.42 l 1.716,2.553 -16.208,-3.158 -10.286,-1.434 -12.301,2.156 -19.716,6.008 -3.94,-0.873 15.149,-6.194 -10.278,2.288 0.905,-1.949 3.686,-3.328 3.173,-1.082 15.752,-5.604 6.624,-6.344 4.103,-30.36 c -7.523,-2.327 -18.127,-7.118 -32.822,-18.18 -7.958,-5.992 -14.367,-12.658 -19.478,-19.588 h 2.472 c 1.09,0 1.738,-0.545 1.946,-1.634 l 6.616,-26.074 h 0.155 l 6.616,26.074 c 0.156,1.089 0.778,1.634 1.868,1.634 h 4.592 c 0.831,0 1.453,-0.545 1.868,-1.634 l 10.274,-31.445 h 4.281 c 0.623,0 0.934,-0.311 0.934,-0.934 v -3.347 c 0,-0.622 -0.311,-0.933 -0.934,-0.934 H 90.34 c -0.675,0.001 -1.012,0.312 -1.012,0.934 v 3.347 c 0,0.623 0.337,0.934 1.012,0.934 h 3.503 l -7.784,26.23 h -0.155 l -6.85,-26.23 h 3.036 c 0.623,0 0.934,-0.311 0.934,-0.934 v -3.347 c 0,-0.622 -0.311,-0.933 -0.934,-0.934 H 68.391 c -0.623,0.001 -0.934,0.312 -0.934,0.934 v 3.347 c 0,0.623 0.311,0.934 0.934,0.934 h 3.036 z M 175.879,97.833 c 0.726,-0.001 1.089,-0.338 1.089,-1.012 0,-0.208 0,-0.415 0,-0.623 0,-5.759 -1.505,-10.339 -4.514,-13.737 -3.01,-3.399 -7.148,-5.098 -12.414,-5.098 -5.267,0 -9.717,1.751 -13.349,5.253 -3.632,3.503 -5.448,8.277 -5.448,14.322 0,6.045 1.829,10.857 5.487,14.438 3.658,3.58 8.211,5.37 13.66,5.37 2.387,0 4.631,-0.337 6.732,-1.012 2.102,-0.674 3.814,-1.505 5.137,-2.49 1.323,-0.986 2.348,-1.868 3.075,-2.647 0.726,-0.778 1.206,-1.349 1.44,-1.712 0.233,-0.363 0.35,-0.662 0.35,-0.895 0,-0.234 -0.156,-0.506 -0.467,-0.817 l -2.102,-2.102 c -0.519,-0.363 -0.986,-0.285 -1.401,0.234 -0.778,1.297 -2.296,2.62 -4.553,3.969 -2.257,1.349 -4.968,2.024 -8.133,2.024 -3.166,0 -6.007,-1.168 -8.523,-3.503 -2.517,-2.335 -3.879,-5.655 -4.086,-9.962 z m -65.147,13.153 c -0.674,10e-4 -1.011,0.312 -1.011,0.934 v 3.347 c 0,0.623 0.337,0.934 1.011,0.934 h 14.866 c 0.675,0 1.012,-0.311 1.012,-0.934 v -3.347 c 0,-0.622 -0.337,-0.933 -1.012,-0.934 h -4.125 V 97.911 c 0,-3.633 1.323,-6.876 3.97,-9.73 2.646,-2.853 6.2,-4.28 10.663,-4.28 h 1.634 c 0.675,-10e-4 1.012,-0.338 1.012,-1.012 v -4.125 c 0,-0.675 -0.337,-1.012 -1.012,-1.012 -2.646,0 -5.02,0.389 -7.121,1.167 -2.102,0.779 -3.71,1.648 -4.826,2.608 -1.116,0.96 -2.14,2.166 -3.074,3.619 -0.934,1.453 -1.479,2.594 -1.635,3.425 h -0.233 v -9.73 c 0,-0.622 -0.338,-0.933 -1.012,-0.934 h -9.107 c -0.674,0.001 -1.011,0.312 -1.011,0.934 v 3.347 c 0,0.623 0.337,0.934 1.011,0.934 h 4.281 v 27.864 z m 73.397,0 c -0.675,10e-4 -1.012,0.312 -1.012,0.934 v 3.347 c 0,0.623 0.337,0.934 1.012,0.934 h 14.866 c 0.675,0 1.012,-0.311 1.012,-0.934 v -3.347 c 0,-0.622 -0.337,-0.933 -1.012,-0.934 H 194.87 V 89.582 c 0.415,-0.83 0.752,-1.401 1.012,-1.712 2.231,-3.269 5.344,-4.903 9.34,-4.903 2.802,0 4.929,0.83 6.382,2.49 1.453,1.661 2.179,3.996 2.179,7.005 v 20.47 c 0,2.18 1.116,3.269 3.347,3.269 h 7.394 c 0.675,0 1.012,-0.311 1.012,-0.934 v -3.347 c 0,-0.622 -0.337,-0.933 -1.012,-0.934 h -4.359 v -20.08 c -0.051,-4.152 -1.245,-7.446 -3.58,-9.885 -2.335,-2.439 -5.578,-3.658 -9.729,-3.658 -5.656,0 -9.833,2.257 -12.531,6.771 h -0.234 l 0.156,-5.293 c 0,-0.622 -0.337,-0.933 -1.012,-0.934 h -9.106 c -0.675,0.001 -1.012,0.312 -1.012,0.934 v 3.347 c 0,0.623 0.337,0.934 1.012,0.934 h 4.281 v 27.864 z M 255.3,93.874 c 0.802,-0.233 1.542,-0.305 2.195,-0.174 2.611,0.525 0.777,0.443 -2.195,0.174 z m -84.792,-0.789 c -0.156,-3.217 -1.167,-5.786 -3.035,-7.706 -1.868,-1.919 -4.359,-2.879 -7.472,-2.879 -3.114,0 -5.786,0.882 -8.017,2.646 -2.231,1.764 -3.555,4.41 -3.97,7.939 z"
     style="fill:#383838"
     id="path833" /></g></svg>
